<svg version="1.2" xmlns="http://www.w3.org/2000/svg" viewBox="0 0 1024 1024" width="1024" height="1024">
	<style>
		.s0 { fill: #000000 } 
	</style>
	<g id="logo">
		<path id="left" fill-rule="evenodd" class="s0" d="m57.93 224.69h120.56c25.77 0 46.67 20.89 46.67 46.66v402.52c0 25.77-20.9 46.66-46.67 46.66h-120.56c-25.77 0-46.67-20.89-46.67-46.66v-402.52c0-25.77 20.9-46.66 46.67-46.66z"/>
		<path id="middleTop" fill-rule="evenodd" class="s0" d="m450.72 22.46h120.56c25.77 0 46.67 20.89 46.67 46.67v120.55c0 25.78-20.9 46.67-46.67 46.67h-120.56c-25.77 0-46.67-20.89-46.67-46.67v-120.55c0-25.78 20.9-46.67 46.67-46.67z"/>
		<path id="middleBottom" fill-rule="evenodd" class="s0" d="m450.72 345.24h120.56c25.77 0 46.67 18.74 46.67 41.84v421.9c0 23.1-20.9 41.84-46.67 41.84h-120.56c-25.77 0-46.67-18.74-46.67-41.84v-421.9c0-23.1 20.9-41.84 46.67-41.84z"/>
		<path id="right" fill-rule="evenodd" class="s0" d="m843.51 144.96h120.56c25.77 0 46.67 20.89 46.67 46.67v762.24c0 25.78-20.9 46.67-46.67 46.67h-120.56c-25.77 0-46.67-20.89-46.67-46.67v-762.24c0-25.78 20.9-46.67 46.67-46.67z"/>
	</g>
</svg>